<?xml version="1.0" encoding="UTF-8"?><svg id="katman_1" xmlns="http://www.w3.org/2000/svg" viewBox="0 0 316 331.8"><defs><style>.cls-1{fill:#0cc2ff;fill-rule:evenodd;stroke-width:0px;}</style></defs><path class="cls-1" d="M294.19,85.14l-47.92-28.49-40.48,23.82v-29.18l-47.85-28.39-47.7,28.39v29.49l-40.95-24.13-47.48,28.52v56.76l40.26,24.05-40.26,24.05v56.3l47.48,28.98,40.46-23.95v29.51l47.95,28.03,48.15-28.03-.1-29.51,40.56,23.95,47.9-28.98v-56.3l-40.43-24.05,40.43-24.05v-56.78ZM246.27,65.56l36.69,21.8-80.86,47.9-20.84-12.43,24.53-14.55v-18.92l40.48-23.8ZM117.73,60.18l36.49,21.73v43.63l-4.84-2.89-7.49-4.44-24.16-14.37v-43.66ZM198.3,103.83l-32,18.97-4.59,2.73v-43.63l36.59-21.73v43.66ZM157.96,75.21l-36.49-21.7,36.49-21.73,36.56,21.73-36.56,21.7ZM69.34,65.56l40.9,24.1v18.61l24.21,14.4-20.96,12.56-80.47-47.87,36.31-21.8ZM29.3,137.48v-43.43l76.72,45.65-36.49,21.8-40.23-24.02ZM65.57,264.07l-36.26-22.14v-42.97l36.26,21.78v43.33ZM33,192.25l80.52-48.1,36.66,21.42-80.86,48.48-36.31-21.8ZM153.94,297.84l-36.71-21.45v-29.49l36.71-21.73v72.66ZM153.94,216.3l-80.89,47.87v-43.43l80.89-48.51v44.07ZM121,139.65l20.91-12.54,16.02,9.55,15.85-9.4,20.76,12.38-36.86,21.45-36.69-21.45ZM161.44,297.87v-72.69l36.81,21.73.07,29.49-36.88,21.47ZM242.52,264.19l-81.09-47.92v-44.04l81.09,48.51v43.45ZM286.7,241.93l-36.69,22.19v-43.38l36.69-21.83v43.02ZM282.98,192.25l-36.71,21.8-81.06-48.48,36.86-21.42,80.91,48.1ZM286.7,137.48l-40.43,24.05-36.69-21.83,77.12-45.68v43.45Z"/></svg>